<svg width="20" height="20" viewBox="0 0 20 20" fill="none" xmlns="http://www.w3.org/2000/svg">
<path fill-rule="evenodd" clip-rule="evenodd" d="M2.49186 4.06043C2.75546 3.62397 4.20783 2.03645 5.24427 2.08438C5.55408 2.11005 5.82795 2.29747 6.05047 2.51484C6.56141 3.01378 8.02406 4.90082 8.10707 5.29792C8.30905 6.27182 7.14852 6.83323 7.5037 7.81484C8.40919 10.0305 9.9694 11.5906 12.186 12.4952C13.1668 12.8504 13.7283 11.6899 14.7022 11.8927C15.0985 11.9758 16.9865 13.4383 17.4854 13.9492C17.702 14.1709 17.8903 14.4456 17.9159 14.7554C17.9544 15.8466 16.2684 17.3194 15.9398 17.5077C15.1644 18.0622 14.1528 18.0528 12.9195 17.4794C9.47814 16.0477 3.97847 10.6518 2.5201 7.08056C1.96209 5.85419 1.92358 4.83578 2.49186 4.06043Z" stroke="white" stroke-width="1.5" stroke-linecap="round" stroke-linejoin="round"/>
</svg>
