<svg width="20" height="20" viewBox="0 0 20 20" fill="none" xmlns="http://www.w3.org/2000/svg">
<path fill-rule="evenodd" clip-rule="evenodd" d="M10.0484 1.66688C7.12204 1.65512 4.4047 3.17251 2.88391 5.66676C1.36292 8.16133 1.26082 11.2689 2.61479 13.8576L2.76798 14.1563C2.82654 14.266 2.83784 14.3844 2.8039 14.4939C2.58512 15.0721 2.39288 15.6964 2.2395 16.3308L2.22321 16.4675C2.22321 17.1053 2.56355 17.5436 3.239 17.5286L3.35148 17.515C3.96506 17.3795 4.56933 17.205 5.16059 16.9924C5.23896 16.9726 5.36733 16.9803 5.48317 17.0277L6.05195 17.3495C6.05323 17.3535 6.05419 17.3565 6.06014 17.36L6.09832 17.3733C9.16086 18.9836 12.9011 18.5394 15.4998 16.2566C18.099 13.9734 19.0167 10.3251 17.8064 7.08657C16.5962 3.84836 13.5097 1.69231 10.0484 1.66688ZM9.80632 2.83255L10.0404 2.82888C13.0193 2.85154 15.6758 4.7072 16.7172 7.49364C17.7584 10.2798 16.9689 13.4184 14.7324 15.383L14.549 15.5388C12.3856 17.315 9.38193 17.673 6.86066 16.4557L6.62088 16.3355L6.63116 16.3369L6.61599 16.3327L6.26406 16.1308C6.13734 16.0592 6.03681 16.0049 5.95579 15.9659C5.56983 15.8068 5.17803 15.7833 4.80953 15.8848L4.46068 16.0046C4.23013 16.0808 4.00318 16.1495 3.77736 16.2118L3.44814 16.2978L3.36972 16.6041C3.51191 16.016 3.69011 15.4372 3.90332 14.8709C4.04052 14.4319 3.99857 13.9921 3.79804 13.6169L3.64727 13.3228C2.48031 11.0916 2.56814 8.41828 3.87671 6.2721C5.14456 4.19269 7.3792 2.90199 9.80632 2.83255ZM5.39558 10.0002C5.39558 9.47501 5.82163 9.04965 6.34671 9.04965C6.8718 9.04965 7.29785 9.47501 7.29785 10.0002C7.29785 10.5254 6.8718 10.9507 6.34671 10.9507C5.82163 10.9507 5.39558 10.5254 5.39558 10.0002ZM9.09298 10.0002C9.09298 9.47501 9.51903 9.04965 10.0441 9.04965C10.5692 9.04965 10.9952 9.47501 10.9952 10.0002C10.9952 10.5254 10.5692 10.9507 10.0441 10.9507C9.51903 10.9507 9.09298 10.5254 9.09298 10.0002ZM13.7415 9.04965C13.2164 9.04965 12.7904 9.47501 12.7904 10.0002C12.7904 10.5254 13.2164 10.9507 13.7415 10.9507C14.2666 10.9507 14.6926 10.5254 14.6926 10.0002C14.6926 9.47501 14.2666 9.04965 13.7415 9.04965Z" fill="white"/>
</svg>
