<svg width="31" height="31" viewBox="0 0 31 31" fill="none" xmlns="http://www.w3.org/2000/svg">
<path d="M25.4141 20.8602C28.5164 16.616 28.2997 10.5945 24.6123 6.58331C20.9249 2.56976 14.9953 1.90123 10.5737 4.71189" stroke="#B0BEC5" stroke-width="5" stroke-miterlimit="10" stroke-linecap="round"/>
<path d="M23.1256 18.332C24.911 15.3966 24.629 11.4984 22.1933 8.85014C19.7576 6.2019 15.9303 5.62282 12.9003 7.2047" stroke="#B0BEC5" stroke-width="5" stroke-miterlimit="10" stroke-linecap="round"/>
<path d="M20.7478 15.6226C21.2396 14.1043 20.925 12.3694 19.7759 11.1171C18.6244 9.86473 16.9346 9.41747 15.3986 9.80117" stroke="#B0BEC5" stroke-width="5" stroke-miterlimit="10" stroke-linecap="round"/>
<path d="M21.0243 24.7749C21.0243 24.7749 15.4682 23.3131 11.3468 27.2278C9.57382 28.9132 8.31981 30.1632 8.01687 30.4668C7.07049 31.4155 4.63526 31.1636 2.27048 28.7932C-0.0942985 26.4227 -0.46064 23.5908 0.485742 22.6445C0.626642 22.5033 2.20942 21.0933 3.96598 19.2313C5.84231 17.2398 5.50415 14.4597 5.62391 12.7437C5.76716 10.6816 6.14524 9.86475 6.14524 9.86475L21.0243 24.7749Z" fill="#8CAFBF"/>
<path d="M21.0268 24.7739C22.6702 23.1266 20.6718 18.4525 16.5633 14.3342C12.4548 10.2158 7.79201 8.21263 6.14861 9.85998C4.50521 11.5073 6.50357 16.1814 10.6121 20.2998C14.7206 24.4181 19.3834 26.4213 21.0268 24.7739Z" fill="#54646D"/>
<path d="M18.0413 16.5641C18.0413 16.5641 13.9646 19.7679 16.1227 24.2546L8.56343 17.9883L5.65149 11.6772L6.14699 9.8623L8.53056 9.2738L12.2081 11.117L16.5619 14.3349L18.0413 16.5641Z" fill="#2C3640"/>
<path d="M9.39807 18.0637L11.4411 16.6583L14.2826 19.5067L13.0568 21.6912C10.8447 19.9492 9.39807 18.0637 9.39807 18.0637Z" fill="#8CAFBF"/>
<path d="M14.2827 19.5071C14.655 19.1339 14.3205 18.1934 13.5355 17.4065C12.7505 16.6196 11.8122 16.2842 11.4399 16.6575C11.0676 17.0307 11.4021 17.9712 12.1871 18.7581C12.9722 19.545 13.9104 19.8803 14.2827 19.5071Z" fill="#B2DFEC"/>
<path d="M4.62354 20.1847C5.40789 19.1583 5.46895 18.6428 5.73431 17.3763C6.48343 19.0171 7.70926 20.6696 9.13471 21.7712C8.503 21.9878 8.42786 21.5453 7.84077 21.8654C7.35232 22.1314 6.90378 22.4633 6.46699 22.8093C5.47599 23.5885 6.91318 22.3315 6.04429 23.2213C5.90339 23.3672 4.62354 24.7208 4.62354 24.7208C4.62354 24.7208 3.84624 24.5866 3.6208 24.2194C3.4846 23.9958 3.12061 22.3103 3.12061 22.3103C3.12061 22.3103 4.39106 20.4883 4.62354 20.1847Z" fill="#B2DFEC"/>
<path d="M4.5919 30.4788C4.58286 30.4765 4.57156 30.4765 4.558 30.4717C4.55574 30.4717 4.55348 30.4717 4.55122 30.4694C4.54896 30.4694 4.54444 30.467 4.53992 30.467C4.5693 30.4812 4.59868 30.4953 4.6258 30.5094L4.6032 30.4788C4.59868 30.4812 4.59642 30.4788 4.5919 30.4788Z" fill="#8CAFBF"/>
<path d="M11.3794 26.936C11.2777 27.0278 11.1737 27.122 11.0675 27.2279C11.1715 27.1267 11.2754 27.0302 11.3794 26.936Z" fill="#8CAFBF"/>
<path d="M3.88933 30.3541C3.87317 30.3517 3.85932 30.3493 3.84778 30.3469C3.86163 30.3493 3.87548 30.3517 3.88933 30.3541Z" fill="#738A97"/>
<path d="M4.07187 30.387C4.00858 30.3752 3.9453 30.3658 3.88879 30.354C3.94078 30.3634 4.0018 30.3752 4.07187 30.387Z" fill="#738A97"/>
<path d="M3.79776 30.3378C3.77006 30.333 3.74466 30.3282 3.7262 30.3258C3.74697 30.3306 3.77006 30.333 3.79776 30.3378Z" fill="#738A97"/>
<path d="M3.84924 30.3471C3.83077 30.3447 3.8123 30.3399 3.79614 30.3375C3.8123 30.3423 3.82846 30.3447 3.84924 30.3471Z" fill="#738A97"/>
<path d="M4.37281 30.4411C4.34343 30.4364 4.31631 30.4317 4.28918 30.427C4.31857 30.4294 4.34569 30.4364 4.37281 30.4411Z" fill="#738A97"/>
<path d="M4.50163 30.4624C4.46547 30.4553 4.42253 30.4483 4.3728 30.4388C4.41349 30.4483 4.45643 30.4553 4.50163 30.4624Z" fill="#738A97"/>
<path d="M4.21881 30.4129C4.16457 30.4034 4.11484 30.394 4.0719 30.387C4.12162 30.3964 4.17135 30.4034 4.21881 30.4129Z" fill="#738A97"/>
<path d="M4.29007 30.4249C4.26698 30.4201 4.2439 30.4177 4.21851 30.4128C4.24159 30.4177 4.26698 30.4225 4.29007 30.4249Z" fill="#738A97"/>
<path d="M3.69632 30.3213C3.68617 30.3187 3.6811 30.3187 3.67603 30.3187C3.6811 30.3187 3.68871 30.3187 3.69632 30.3213Z" fill="#738A97"/>
<path d="M11.6752 26.6888C11.578 26.7665 11.4808 26.8466 11.3813 26.936C11.4763 26.8489 11.5757 26.7712 11.6752 26.6888Z" fill="#738A97"/>
<path d="M4.50122 30.4623C4.51507 30.4647 4.52892 30.4671 4.54047 30.4695C4.52661 30.4671 4.51276 30.4647 4.50122 30.4623Z" fill="#738A97"/>
<path d="M3.72665 30.3259C3.7128 30.3234 3.70357 30.321 3.69434 30.321C3.70357 30.3234 3.71511 30.3234 3.72665 30.3259Z" fill="#738A97"/>
<path d="M3.67908 30.3188C3.67403 30.3163 3.67403 30.3163 3.67908 30.3188V30.3188Z" fill="#738A97"/>
<path d="M4.59167 30.4788C4.59672 30.4788 4.59925 30.4813 4.6043 30.4813C4.6043 30.4813 4.59925 30.4788 4.59167 30.4788Z" fill="#738A97"/>
<path d="M4.53992 30.4694C4.54497 30.4694 4.54749 30.4719 4.55254 30.4719C4.54749 30.4719 4.54244 30.4694 4.53992 30.4694Z" fill="#738A97"/>
<path d="M4.54907 30.4718C4.55179 30.4718 4.55451 30.4718 4.55723 30.4745C4.55451 30.4718 4.55179 30.4718 4.54907 30.4718Z" fill="#738A97"/>
<path d="M4.55591 30.4718C4.57207 30.4742 4.58361 30.4766 4.59054 30.479C4.57899 30.4766 4.56976 30.4742 4.55591 30.4718Z" fill="#738A97"/>
<path d="M6.59611 30.9658C6.54617 30.9705 6.49623 30.9752 6.44629 30.9752C6.4985 30.9752 6.54844 30.9705 6.59611 30.9658Z" fill="#427687"/>
<path d="M7.58751 30.6104C7.57128 30.6224 7.55505 30.6344 7.53882 30.6464C7.55505 30.6344 7.57128 30.6224 7.58751 30.6104Z" fill="#427687"/>
<path d="M7.35021 30.761C7.33862 30.7658 7.32702 30.7706 7.31775 30.7754C7.32702 30.7706 7.33862 30.7658 7.35021 30.761Z" fill="#427687"/>
<path d="M7.1366 30.8505C7.10936 30.8599 7.07985 30.8693 7.05261 30.8787C7.08212 30.8693 7.10936 30.8599 7.1366 30.8505Z" fill="#427687"/>
<path d="M6.36435 30.9776C6.25539 30.9776 6.14189 30.9753 6.02612 30.9635C6.14189 30.9729 6.25539 30.9776 6.36435 30.9776Z" fill="#427687"/>
<path d="M6.87565 30.9235C6.82798 30.9329 6.77804 30.9423 6.72583 30.9494C6.77804 30.9423 6.82798 30.9329 6.87565 30.9235Z" fill="#427687"/>
<path d="M11.0004 27.1993C10.9888 27.209 10.9795 27.2186 10.9679 27.2282C10.9795 27.2186 10.9911 27.209 11.0004 27.1993Z" fill="#427687"/>
<path d="M4.47607 30.4809C6.57806 30.8481 7.23182 30.0289 7.23182 30.0289C7.99226 29.1297 9.49952 27.5666 10.1419 26.9075C8.74362 26.3779 7.45427 25.5846 6.3715 24.4641C5.06853 23.1129 4.03115 21.152 3.54765 19.5419C1.96547 21.2509 0.596679 22.5126 0.46729 22.6468C-0.44751 23.5954 -0.0933937 26.4249 2.19247 28.7954C3.53176 30.1842 4.8892 30.841 5.97198 30.9587C5.52025 30.9069 5.02086 30.7633 4.49423 30.5115L4.47607 30.4809Z" fill="#427687"/>
<path d="M8.82751 29.3651C8.61867 29.5746 8.43707 29.7606 8.28271 29.9207C8.43707 29.7629 8.61867 29.577 8.82751 29.3651Z" fill="#54646D"/>
<path d="M7.75165 30.4667C7.70171 30.5185 7.64496 30.5655 7.58594 30.6103C7.64496 30.5655 7.70171 30.5185 7.75165 30.4667Z" fill="#54646D"/>
<path d="M7.31544 30.7751C7.25869 30.8034 7.1974 30.8269 7.13611 30.8505C7.19967 30.8269 7.25869 30.8034 7.31544 30.7751Z" fill="#54646D"/>
<path d="M7.53887 30.6456C7.47985 30.688 7.41629 30.7257 7.35046 30.761C7.41629 30.7257 7.47985 30.6856 7.53887 30.6456Z" fill="#54646D"/>
<path d="M9.04321 29.1462C9.56531 28.6189 10.2191 27.9645 10.9704 27.2277C10.2191 27.9645 9.56531 28.6189 9.04321 29.1462Z" fill="#54646D"/>
<path d="M6.02769 30.9612C6.01146 30.9588 5.99523 30.9588 5.97668 30.9564C5.99291 30.9588 6.01146 30.9612 6.02769 30.9612Z" fill="#54646D"/>
<path d="M6.72839 30.9493C6.68526 30.9564 6.64213 30.9611 6.599 30.9658C6.64213 30.9611 6.68526 30.9564 6.72839 30.9493Z" fill="#54646D"/>
<path d="M6.44671 30.9752C6.41947 30.9752 6.39223 30.9752 6.36499 30.9752C6.39223 30.9776 6.41947 30.9776 6.44671 30.9752Z" fill="#54646D"/>
<path d="M7.05255 30.8788C6.9958 30.8953 6.93678 30.9117 6.87549 30.9235C6.93678 30.9094 6.9958 30.8953 7.05255 30.8788Z" fill="#54646D"/>
<path d="M7.23402 30.0265C7.23402 30.0265 6.578 30.848 4.47827 30.4785L4.50097 30.5091C5.02761 30.7609 5.527 30.9045 5.97873 30.9563C5.99461 30.9587 6.0105 30.9587 6.02866 30.961C6.14443 30.9728 6.25793 30.9775 6.36689 30.9752C6.39413 30.9752 6.42137 30.9752 6.44861 30.9752C6.50082 30.9728 6.55076 30.9681 6.59843 30.9657C6.64156 30.961 6.68469 30.9563 6.72782 30.9493C6.77776 30.9422 6.8277 30.9328 6.87764 30.9234C6.93892 30.9092 6.99794 30.8951 7.05469 30.8786C7.0842 30.8692 7.11144 30.8598 7.13868 30.8504C7.19997 30.8292 7.26126 30.8033 7.31801 30.7751C7.32936 30.7704 7.34071 30.7657 7.34979 30.7609C7.41789 30.7256 7.47918 30.688 7.5382 30.6456C7.55409 30.6338 7.56998 30.6221 7.58587 30.6103C7.64489 30.5656 7.70164 30.5185 7.75158 30.4667C7.84237 30.3725 8.02397 30.1842 8.28275 29.9206C8.43711 29.7629 8.62098 29.5769 8.82754 29.365C8.89564 29.2944 8.96828 29.2214 9.04319 29.1461C9.56529 28.6188 10.219 27.9644 10.9704 27.2276C10.9818 27.2182 10.9908 27.2088 10.9999 27.1994C10.7094 27.1146 10.4256 27.0134 10.1441 26.9075C9.50173 27.5666 7.99446 29.1296 7.23402 30.0265Z" fill="#2A4E56"/>
<path d="M16.4456 24.365C16.1203 24.2904 15.7791 24.2031 15.4411 24.1046C13.5215 23.5427 11.723 22.9824 11.723 22.9824C11.8952 23.2872 11.6656 23.4396 12.5489 23.8221C13.1835 24.0951 13.0272 24.6078 12.2619 24.7745C10.7217 25.111 9.91496 25.3745 9.52274 25.5761C9.52274 25.5761 9.3633 25.6554 9.09863 25.7856C9.49404 25.857 9.89583 25.9253 10.3008 25.9824C10.4347 25.9189 10.5687 25.8618 10.6962 25.8062C10.8333 25.7475 10.9736 25.6935 11.1108 25.6396C13.9392 24.557 15.6101 25.257 19.0986 24.8062C19.0986 24.8046 17.8901 24.6967 16.4456 24.365ZM13.091 24.9888C12.8741 25.0475 12.6573 25.1094 12.4405 25.1745C12.6541 25.1094 12.871 25.0475 13.091 24.9888ZM12.4277 25.1777C11.9845 25.3126 11.5444 25.4665 11.1139 25.6364C11.5444 25.4665 11.9845 25.3142 12.4277 25.1777ZM15.3901 24.5094C15.5176 24.4904 15.642 24.4681 15.7696 24.4507C15.6452 24.4697 15.5176 24.4904 15.3901 24.5094ZM13.1292 24.9792C13.3365 24.9237 13.547 24.8729 13.7542 24.8237C13.547 24.8713 13.3365 24.9237 13.1292 24.9792ZM13.8435 24.8031C14.038 24.7586 14.2294 24.7173 14.4239 24.6792C14.2326 24.7173 14.038 24.7602 13.8435 24.8031ZM14.5897 24.6491C14.7587 24.6173 14.9277 24.584 15.0967 24.557C14.9277 24.584 14.7587 24.6158 14.5897 24.6491Z" fill="#738A97"/>
<path d="M4.10006 21.9824C3.1637 22.9714 2.09965 24.0582 2.09965 24.0582C2.09965 24.0582 2.03745 24.9641 2.88541 25.9824C2.88541 25.9824 4.03458 24.8386 5.09863 23.817C4.49785 23.0724 4.21793 22.3621 4.10006 21.9824Z" fill="#8CAFBF"/>
<path d="M21.3004 25.2033C19.3802 27.1477 14.582 25.2245 10.1441 20.7284C5.70382 16.2323 3.80452 11.376 5.72474 9.43162C7.64497 7.48723 12.0178 9.83886 16.458 14.335C20.8959 18.8311 23.2207 23.2589 21.3004 25.2033ZM6.57094 10.2908C5.37836 11.4984 6.89873 15.7309 10.9903 19.8716C15.0818 24.0122 19.2593 25.5541 20.4519 24.3465C21.6445 23.1389 20.1241 18.9064 16.0326 14.7658C11.9411 10.6251 7.76353 9.08323 6.57094 10.2908Z" fill="#B3D0E0"/>
<path d="M6.68863 14.2883C6.85713 14.7149 7.09629 15.8201 8.89181 18.287C8.95341 18.3711 9.20706 18.7514 9.04581 18.9384C8.93892 19.0624 8.74324 18.9111 8.51857 18.6506C7.64165 17.6335 6.8209 16.3454 6.20488 14.8472C5.85701 14.0004 6.45491 13.6999 6.68863 14.2883Z" fill="#B2DFEC"/>
</svg>
