<svg width="29" height="30" viewBox="0 0 29 30" fill="none" xmlns="http://www.w3.org/2000/svg">
<path d="M13.2325 6.31301C13.7315 6.03541 15.0852 5.38686 17.8669 7.52414C20.6485 9.66142 20.0259 11.3958 19.7122 11.8478C19.3441 12.3809 17.0245 14.2406 17.0245 14.2406L4.19349 30C4.19349 30 3.23499 29.8845 1.95041 29.0001C0.564547 28.047 -0.549579 25.863 0.290339 24.2809C0.762175 23.3941 10.651 9.68108 12.5383 7.07703C12.7088 6.84365 12.8743 6.512 13.2325 6.31301Z" fill="#FE180A"/>
<path d="M13.2863 6.28493C12.6545 6.90833 12.9977 8.44346 15.0301 9.87469C17.1221 11.3501 18.5002 11.1397 18.9007 10.5682C19.3211 9.9656 18.3534 8.34995 17.0077 7.30835C15.5947 6.2148 13.9729 5.60698 13.2863 6.28493Z" fill="#A42615"/>
<path d="M15.2403 13L4 29.717C4 29.717 4.91906 30.0288 5.65935 29.9978C6.69173 29.9566 7.24065 29.498 7.24065 29.498L18 13.6003L15.2403 13Z" fill="#CA1837"/>
<path d="M11.0104 8.54174C11.0104 8.54174 10.802 9.51803 12.2518 11.1075C12.9777 11.9035 13.4909 12.3099 13.912 12.5816C14.3397 12.8557 14.6534 13 14.6534 13L15.9276 12.5191L16 10.8334C16 10.8334 14.5766 10.0326 13.6269 8.85915C12.3965 7.337 12.6158 6.48334 12.6751 6C12.4623 6.28375 11.0104 8.54174 11.0104 8.54174Z" fill="#FDB700"/>
<path d="M19 11.2773L17.4183 13.9191C17.4183 13.9191 17.1503 14.1336 16.2004 13.8642C15.634 13.702 15 13.3541 15 13.3541L16.3377 11C16.3377 11 17.1307 11.4368 17.7691 11.5022C18.3834 11.5624 19 11.2773 19 11.2773Z" fill="#DE7F14"/>
<path d="M16.008 8.03671C15.9549 8.32622 16.1698 8.65969 16.5365 8.89233C16.9007 9.12757 17.3609 8.93369 17.3887 8.7269C17.4165 8.5201 17.5278 6.30736 18.4027 6.19879C19.2827 6.08763 19.6873 7.91263 21.3917 8.38309C22.6156 8.71914 23 8.39602 23 8.39602L22.8382 7.4008C22.8382 7.4008 22.3274 7.73168 21.3108 7.15264C20.2437 6.54517 19.7556 4.85718 18.2156 5.0097C16.62 5.16738 16.3898 6.98721 16.2811 7.30516C16.1698 7.62053 16.0257 7.93848 16.008 8.03671Z" fill="#D8A26D"/>
<path d="M19.0341 2.54823C19.1493 2.77629 21.8908 7.02949 21.8908 7.02949C21.8908 7.02949 21.91 12.4747 21.91 12.6652C21.91 13.0061 22.1429 13.1377 22.4118 12.8156C22.5606 12.6369 24.7284 9.11024 24.7284 9.11024C24.7284 9.11024 28.3965 10.5844 28.6677 10.7184C28.939 10.8501 29.0927 10.6808 28.939 10.3587C28.7854 10.0366 26.3704 5.80219 26.3704 5.80219C26.3704 5.80219 28.7254 2.51296 28.8598 2.24728C28.9942 1.9816 28.8022 1.81232 28.5501 1.92517C28.2981 2.03803 25.3837 3.45576 25.3837 3.45576C25.3837 3.45576 24.3202 0.441609 24.2434 0.260572C24.109 -0.0615333 23.8953 -0.11796 23.7993 0.279381C23.7033 0.676723 22.7382 3.96596 22.7382 3.96596C22.7382 3.96596 19.6487 2.37659 19.3798 2.26374C19.1109 2.15088 18.9189 2.32252 19.0341 2.54823Z" fill="#FD8E02"/>
<path d="M21 4.43628L22.9619 6.9293L22.9166 11L24.6942 8.22667L28 9.72248L25.7205 6.39101L27.1806 4.31721C27.1806 4.31721 25.3123 5.23504 25.2641 5.13581C25.2159 5.03659 24.4419 3 24.4419 3L23.6679 5.37395L21 4.43628Z" fill="#FFE268"/>
<path d="M22.0059 7.99983L22 7.20009C22 7.20009 22.7152 7.13063 23.3829 6.66428C23.9645 6.25548 24.4008 5.70777 24.9052 6.18603C25.2851 6.5472 24.4453 7.18024 23.7627 7.51165C22.7181 8.02364 22.0059 7.99983 22.0059 7.99983Z" fill="#FCBA03"/>
</svg>
