<svg width="28" height="33" viewBox="0 0 28 33" fill="none" xmlns="http://www.w3.org/2000/svg">
<path d="M14.0427 24.5947C14.0293 24.5947 14.0186 24.5947 14.0053 24.5947C7.15193 24.6027 0.111572 26.4917 0.111572 31.2717V32.0759H0.512352H0.913131H27.0974H27.4982H27.899V31.2717C27.899 26.767 20.9281 24.5947 14.0427 24.5947Z" />
<path d="M17.2995 27.3386C17.2995 27.3386 19.1378 27.4962 20.9974 28.068C24.4708 29.1367 25.5155 27.3038 25.5155 27.3038C25.5155 27.3038 21.7161 24.8137 16.9068 24.7789C16.9041 24.7789 16.5861 27.1462 17.2995 27.3386Z" fill="#283593"/>
<path d="M2.40674 27.2664C2.40674 27.2664 3.47548 29.1367 6.94891 28.068C8.80852 27.4962 10.6468 27.3386 10.6468 27.3386C11.3575 27.1435 11.0395 24.7789 11.0395 24.7789C6.23017 24.8137 2.40674 27.2664 2.40674 27.2664Z" fill="#283593"/>
<path d="M9.12908 30.9295H6.21407C5.89345 30.9295 5.63428 30.6703 5.63428 30.3497C5.63428 30.0291 5.89345 29.7699 6.21407 29.7699H9.13175C9.45237 29.7699 9.71154 30.0291 9.71154 30.3497C9.70887 30.6703 9.4497 30.9295 9.12908 30.9295Z" fill="#E0E0E0"/>
<path d="M27.3324 29.1823L25.9964 29.2036L25.3712 30.3499L26.6617 32.0759H27.995C28.0671 30.1067 27.3324 29.1823 27.3324 29.1823Z"/>
<path d="M2.0032 29.2036L0.667271 29.1823C0.667271 29.1823 -0.0648197 30.1067 0.00464871 32.0759H1.33791L2.62842 30.3499L2.0032 29.2036Z" />
<path d="M26.1165 29.4014L27.3348 29.38C27.4444 29.3774 27.5326 29.2865 27.5326 29.177C27.5326 29.0674 27.4471 28.9873 27.3295 28.9792L25.876 29.0033L25.0691 30.4862L26.1993 32.0759H26.6909L25.5393 30.4595L26.1165 29.4014Z" fill="#BDBDBD"/>
<path d="M26.787 30.1255L27.6901 30.0881C27.7649 30.0854 27.8211 30.024 27.8184 29.9492C27.8157 29.8744 27.7516 29.8236 27.6794 29.8209L26.6454 29.8637L26.226 30.4729L27.2813 32.0786H27.602L26.5492 30.4782L26.787 30.1255Z" fill="#BDBDBD"/>
<path d="M2.12304 29.006L0.669551 28.9819C0.666879 28.9819 0.66688 28.9819 0.66688 28.9819C0.557333 28.9819 0.469162 29.0701 0.46649 29.1797C0.463818 29.2892 0.551989 29.3827 0.664208 29.3827L1.88525 29.4041L2.4597 30.4621L1.30813 32.0786H1.79975L2.92995 30.4889L2.12304 29.006Z" fill="#BDBDBD"/>
<path d="M1.35357 29.8637L0.316885 29.8209C0.242073 29.8236 0.18062 29.8744 0.177948 29.9492C0.175276 30.024 0.231385 30.0854 0.306197 30.0881L1.20929 30.1255L1.45243 30.4755L0.399713 32.076H0.720336L1.77572 30.4702L1.35357 29.8637Z" fill="#BDBDBD"/>
<path d="M14.0026 31.5279L16.4928 26.9644H11.1758L14.0026 31.5279Z" fill="#212121"/>
<path d="M11.5737 21.9683V25.7035C11.5737 26.9085 12.5623 27.8864 13.7807 27.8864H14.2215C15.4399 27.8864 16.4285 26.9085 16.4285 25.7035V21.9683H13.9998H11.5737Z" fill="#C48E6A"/>
<path d="M21.3022 12.4429H19.333H8.66691H6.69775C5.12402 12.4429 3.83618 13.8162 3.83618 15.4915C3.83618 17.1667 5.12402 18.5401 6.69775 18.5401H8.66691H19.3303H21.2995C22.8732 18.5401 24.161 17.1667 24.161 15.4915C24.161 13.8162 22.8759 12.4429 21.3022 12.4429Z" fill="#C48E6A"/>
<path d="M14 2C9.32816 2 5 7.02324 5 14.2544C5 21.4451 9.45973 25 14 25C18.5403 25 23 21.4424 23 14.2517C23 7.02324 18.6718 2 14 2Z" fill="#E0BB95"/>
<path d="M9.48979 24.9099L7.35229 29.2463L10.2566 28.3726L14.0026 31.5281L11.5685 24.6667L9.48979 24.9099Z" fill="#3674CE"/>
<path d="M16.442 24.6667L14.0106 31.5281L17.9623 28.418L20.6609 29.2463L18.5234 24.9099L16.442 24.6667Z" fill="#3674CE"/>
<path d="M16.194 19.087C15.365 19.559 12.6408 19.559 11.8117 19.087C11.3347 18.8147 10.8472 19.2318 11.0453 19.6464C11.2408 20.0535 12.7242 21 14.0094 21C15.2946 21 16.7597 20.0535 16.9552 19.6464C17.1507 19.2318 16.6711 18.8147 16.194 19.087Z" fill="#6D4C41"/>
<path d="M14.8285 17.0182C14.8049 17.0091 14.7835 17.0023 14.7599 17H13.2401C13.2165 17.0023 13.1929 17.0091 13.1715 17.0182C13.0341 17.0773 12.959 17.2273 13.0233 17.3886C13.0877 17.55 13.3904 18 14 18C14.6096 18 14.9123 17.5477 14.9767 17.3886C15.041 17.2273 14.9659 17.0773 14.8285 17.0182Z" fill="#C48E6A"/>
<path d="M9.60727 16.0449C10.3348 16.0449 10.9245 15.4348 10.9245 14.6822C10.9245 13.9297 10.3348 13.3196 9.60727 13.3196C8.87978 13.3196 8.29004 13.9297 8.29004 14.6822C8.29004 15.4348 8.87978 16.0449 9.60727 16.0449Z" fill="#5D4037"/>
<path d="M18.3923 16.0449C19.1198 16.0449 19.7095 15.4348 19.7095 14.6822C19.7095 13.9297 19.1198 13.3196 18.3923 13.3196C17.6648 13.3196 17.0751 13.9297 17.0751 14.6822C17.0751 15.4348 17.6648 16.0449 18.3923 16.0449Z" fill="#5D4037"/>
<path d="M7.59295 12.523C8.4426 11.318 10.4412 11.2779 11.4431 12.3039C11.6168 12.4829 11.8011 12.7127 11.6702 12.9718C11.5259 13.2577 11.2294 13.2123 10.9862 13.1135C10.337 12.8516 9.66631 12.7341 8.96896 12.8757C8.66704 12.9371 8.40787 13.0627 8.12198 13.1642C7.73723 13.2951 7.34446 12.8944 7.59295 12.523Z" fill="#AB872F"/>
<path d="M19.8995 13.1642C19.3037 12.905 18.6998 12.7554 18.0426 12.8302C17.7433 12.8649 17.4494 12.9424 17.1715 13.052C16.9498 13.1401 16.712 13.2817 16.4822 13.1268C15.8276 12.6752 16.9872 11.9405 17.3292 11.7935C18.0666 11.4756 18.9457 11.5049 19.659 11.8763C19.9423 12.0233 20.2495 12.237 20.4179 12.5176C20.6289 12.8676 20.3137 13.3325 19.8995 13.1642Z" fill="#AB872F"/>
<path d="M14.0049 0C14.0022 0 14.0022 0 13.9996 0C13.9969 0 13.9969 0 13.9942 0C1.85595 0.0641247 4.34078 13.9311 4.34078 13.9311C4.34078 13.9311 4.88584 15.3605 5.13433 15.9911C5.16906 16.0819 5.30265 16.0713 5.32403 15.9777C5.5832 14.8182 6.51568 10.7062 6.98593 9.45573C7.2638 8.71829 8.02796 8.29079 8.80012 8.4324C9.9891 8.64882 11.8861 8.91601 13.9755 8.91601C13.9835 8.91601 13.9916 8.91601 13.9969 8.91601C14.0022 8.91601 14.0129 8.91601 14.0183 8.91601C16.1077 8.91601 18.0047 8.64882 19.1937 8.4324C19.9685 8.29079 20.7327 8.72096 21.0079 9.45573C21.4754 10.7008 22.4026 14.7888 22.6644 15.9644C22.6858 16.0606 22.8194 16.0686 22.8541 15.9777L23.6503 13.9284C23.6584 13.9311 26.1459 0.0641247 14.0049 0Z" fill="#AB872F"/>
<path d="M23.6584 13.9311C23.6584 13.9311 26.1459 0.0641247 14.0049 0C14.0023 0 14.0023 0 13.9996 0C13.9969 0 13.9969 0 13.9942 0C13.8045 0 13.6202 0.00534378 13.4385 0.0133594C13.0778 0.0293906 12.7278 0.0561091 12.3911 0.0961871C12.3885 0.0961871 12.3831 0.0961871 12.3804 0.0961871C12.3564 0.0988589 12.335 0.104203 12.311 0.106875C2.09376 1.39204 4.3408 13.9311 4.3408 13.9311L5.13701 15.9831C5.17175 16.0739 5.30267 16.0659 5.32405 15.9697C5.58589 14.7968 6.5157 10.7035 6.98594 9.4584C7.26382 8.72096 8.02797 8.29346 8.80014 8.43507C9.98912 8.65149 11.8861 8.91868 13.9755 8.91868C13.9836 8.91868 13.9916 8.91868 13.9969 8.91868C14.0023 8.91868 14.0129 8.91868 14.0183 8.91868C16.1077 8.91868 18.0047 8.65149 19.1937 8.43507C19.9685 8.29346 20.7327 8.72363 21.0079 9.4584C21.4781 10.7088 22.4106 14.8288 22.6671 15.9831C22.6885 16.0793 22.8194 16.0873 22.8541 15.9964C23.1106 15.3659 23.6584 13.9311 23.6584 13.9311Z" />
<path d="M14.0028 5.41858C5.81884 5.41858 4.50696 8.46183 4.50696 8.46183C4.50696 8.46183 7.0292 11.1177 14.0028 11.1684C20.9763 11.1177 23.6268 8.2935 23.6268 8.2935C23.6268 8.2935 22.1867 5.41858 14.0028 5.41858Z"/>
<path d="M3.32594 8.17057C3.74275 9.8298 4.14086 10.5325 4.14086 10.5325C4.56301 9.99546 7.07724 7.50261 14.0374 7.50261C14.0401 7.50261 14.0668 7.50261 14.0668 7.50261C14.0668 7.50261 14.0668 7.50261 14.0748 7.50261C21.035 7.50261 23.4344 10.0115 23.8565 10.5459C23.8565 10.5459 24.3588 9.79774 24.7783 8.13851C25.7455 4.30172 20.9576 0.00268678 14.0668 0.00268678C7.19213 1.49165e-05 2.36407 4.33912 3.32594 8.17057Z" />
<path d="M22.8332 8.46717C22.7824 8.16792 22.6301 7.90341 22.411 7.71638C21.4892 6.93886 18.7372 5.01245 14.0694 5.01245C9.28147 5.01245 6.60159 6.93886 5.71453 7.71638C5.50345 7.90341 5.35917 8.16258 5.3084 8.45381L5.30573 8.46984C5.24428 8.82253 5.32711 9.15651 5.49811 9.41835C6.92221 8.53931 9.55667 7.50263 14.0401 7.50263C14.0427 7.50263 14.0694 7.50263 14.0694 7.50263C14.0694 7.50263 14.0694 7.50263 14.0775 7.50263C18.633 7.50263 21.2354 8.57672 22.606 9.46912C22.8011 9.19926 22.8973 8.84657 22.8332 8.46717Z" fill="#3B78E7"/>
<path d="M16.1964 2.65855L16.1136 2.55168C16.0762 2.50358 16.0147 2.47419 15.9506 2.47419C15.8811 2.47419 15.817 2.50626 15.7796 2.56236C15.6326 2.7868 15.4162 2.93643 15.0341 2.93643C14.6627 2.93643 14.3929 2.59443 14.2299 2.38335C14.1791 2.31655 14.099 2.2738 14.0108 2.2738C13.9226 2.2738 13.8425 2.31655 13.7917 2.38335C13.6314 2.59443 13.3749 2.93643 13.0035 2.93643C12.6214 2.93643 12.405 2.78413 12.2581 2.56236C12.2207 2.50626 12.1565 2.47419 12.0871 2.47419C12.0229 2.47419 11.9615 2.50358 11.9241 2.55168L11.8413 2.65855C11.7424 2.7868 11.7264 2.9578 11.8012 3.09941C11.9134 3.31316 11.9722 3.54828 11.9722 3.78608V4.71589C11.9722 5.39454 13.0783 6.77857 14.0162 6.77857C14.954 6.77857 16.0601 5.39454 16.0601 4.71589V3.78608C16.0601 3.54828 16.1189 3.31316 16.2311 3.09941C16.3113 2.95513 16.2979 2.7868 16.1964 2.65855Z" fill="#FFCC00"/>
<defs>
<linearGradient id="paint0_linear_0_1" x1="14.0061" y1="24.7219" x2="14.0061" y2="32.5352" gradientUnits="userSpaceOnUse">
<stop offset="0.0032" stop-color="#3B78E7"/>
<stop offset="0.2231" stop-color="#386EDA"/>
<stop offset="0.6286" stop-color="#3052B8"/>
<stop offset="1" stop-color="#283593"/>
</linearGradient>
<linearGradient id="paint1_linear_0_1" x1="28.0008" y1="30.6295" x2="25.372" y2="30.6295" gradientUnits="userSpaceOnUse">
<stop offset="0.004" stop-color="#666666"/>
<stop offset="0.0985" stop-color="#606060"/>
<stop offset="0.6803" stop-color="#3F3F3F"/>
<stop offset="1" stop-color="#333333"/>
</linearGradient>
<linearGradient id="paint2_linear_0_1" x1="-0.00144313" y1="30.6295" x2="2.62735" y2="30.6295" gradientUnits="userSpaceOnUse">
<stop offset="0.004" stop-color="#666666"/>
<stop offset="0.0985" stop-color="#606060"/>
<stop offset="0.6803" stop-color="#3F3F3F"/>
<stop offset="1" stop-color="#333333"/>
</linearGradient>
<radialGradient id="paint3_radial_0_1" cx="0" cy="0" r="1" gradientUnits="userSpaceOnUse" gradientTransform="translate(13.9997 11.5073) scale(10.1778 11.4826)">
<stop offset="0.7945" stop-color="#BFA055" stop-opacity="0"/>
<stop offset="1" stop-color="#BFA055"/>
</radialGradient>
<linearGradient id="paint4_linear_0_1" x1="14.0682" y1="5.44693" x2="14.0682" y2="11.0134" gradientUnits="userSpaceOnUse">
<stop offset="0.004" stop-color="#666666"/>
<stop offset="0.0985" stop-color="#606060"/>
<stop offset="0.6803" stop-color="#3F3F3F"/>
<stop offset="1" stop-color="#333333"/>
</linearGradient>
<linearGradient id="paint5_linear_0_1" x1="14.0547" y1="0.0943317" x2="14.0547" y2="8.12032" gradientUnits="userSpaceOnUse">
<stop offset="0.0032" stop-color="#3B78E7"/>
<stop offset="0.0115" stop-color="#3B77E6"/>
<stop offset="0.2985" stop-color="#335BC2"/>
<stop offset="0.5675" stop-color="#2D46A8"/>
<stop offset="0.8091" stop-color="#293998"/>
<stop offset="1" stop-color="#283593"/>
</linearGradient>
</defs>
</svg>
