<svg width="246" height="84" viewBox="0 0 246 84" fill="none" xmlns="http://www.w3.org/2000/svg">
<g filter="url(#filter0_b_0_1)">
<path d="M62.4375 30.4375C62.6458 30.7917 62.8125 31.1562 62.9375 31.5312C63.0833 31.9062 63.2396 32.3958 63.4062 33C63.4896 33.2083 63.5625 33.4479 63.625 33.7188C64.3542 36.1146 65.7396 37.9583 67.7812 39.25C69.8229 40.5417 72.1562 41.1875 74.7812 41.1875C76.1562 41.1875 77.4896 40.9479 78.7812 40.4688C80.0938 39.9688 81.1667 39.2292 82 38.25C82.8542 37.25 83.2812 36.0417 83.2812 34.625C83.2812 33.3958 82.8438 32.25 81.9688 31.1875C81.1146 30.125 80.0417 29.1771 78.75 28.3438C77.4792 27.4896 75.7188 26.4375 73.4688 25.1875C70.8229 23.7292 68.6771 22.4375 67.0312 21.3125C65.3854 20.1875 63.9896 18.8542 62.8438 17.3125C61.6979 15.75 61.125 13.9896 61.125 12.0312C61.125 9.61458 61.8021 7.625 63.1562 6.0625C64.5312 4.47917 66.2812 3.33333 68.4062 2.625C70.5521 1.89583 72.8125 1.53125 75.1875 1.53125C77.2292 1.53125 79.2604 1.78125 81.2812 2.28125C83.3229 2.78125 85.2604 3.5 87.0938 4.4375L87.5 13.3438H85.5625C85.3125 12.8646 85.0208 12.1042 84.6875 11.0625L84.375 10.1562C83.6667 8.11458 82.4375 6.57292 80.6875 5.53125C78.9583 4.46875 76.9583 3.9375 74.6875 3.9375C73.5208 3.9375 72.3438 4.13542 71.1562 4.53125C69.9688 4.92708 68.9688 5.54167 68.1562 6.375C67.3646 7.1875 66.9688 8.19792 66.9688 9.40625C66.9688 10.5312 67.3854 11.5833 68.2188 12.5625C69.0521 13.5417 70.0833 14.4375 71.3125 15.25C72.5417 16.0417 74.2396 17.0417 76.4062 18.25C79.1771 19.7917 81.4167 21.1562 83.125 22.3438C84.8542 23.5104 86.3229 24.9271 87.5312 26.5938C88.7604 28.2604 89.375 30.1458 89.375 32.25C89.375 34.8542 88.6562 37.0312 87.2188 38.7812C85.7812 40.5104 83.9167 41.7812 81.625 42.5938C79.3542 43.4062 76.9375 43.8125 74.375 43.8125C72.0833 43.8125 69.6146 43.5312 66.9688 42.9688C64.3438 42.3854 62.2188 41.5938 60.5938 40.5938V30.5L62.4375 30.4375ZM125.281 36.0938C125.281 37.6979 125.688 38.9583 126.5 39.875C127.333 40.7708 128.51 41.2917 130.031 41.4375C130.031 41.75 130.021 42.0625 130 42.375C129.979 42.6667 129.969 42.875 129.969 43H114.594C114.594 42.875 114.583 42.6667 114.562 42.375C114.542 42.0625 114.531 41.75 114.531 41.4375C114.885 41.2708 115.573 41.0312 116.594 40.7188C117.385 40.4688 117.958 40.2396 118.312 40.0312C118.688 39.8021 118.969 39.4062 119.156 38.8438C119.365 38.2812 119.469 37.4375 119.469 36.3125V24.9688C119.469 22.6771 118.979 20.8542 118 19.5C117.042 18.125 115.531 17.4375 113.469 17.4375C111.99 17.4375 110.552 17.8333 109.156 18.625C107.781 19.3958 106.51 20.3958 105.344 21.625V35.7188C105.344 37.5938 105.771 38.9688 106.625 39.8438C107.479 40.7188 108.875 41.25 110.812 41.4375L110.781 43H94.125C94.125 42.875 94.1146 42.6667 94.0938 42.375C94.0729 42.0625 94.0625 41.75 94.0625 41.4375C97.7083 41.1458 99.5312 39.2396 99.5312 35.7188V6.625C99.3229 6.3125 98.8646 5.9375 98.1562 5.5C97.4479 5.04167 96.6979 4.63542 95.9062 4.28125C95.1354 3.92708 94.5625 3.72917 94.1875 3.6875V2.59375L103.125 0.21875L105.344 0V19C106.99 17.3542 108.604 16.125 110.188 15.3125C111.771 14.4792 113.604 14.0625 115.688 14.0625C118.583 14.0625 120.906 14.9896 122.656 16.8438C124.406 18.6771 125.281 21.4792 125.281 25.25V36.0938ZM163.344 36.0938C163.344 37.6979 163.75 38.9583 164.562 39.875C165.396 40.7708 166.573 41.2917 168.094 41.4375C168.094 41.75 168.083 42.0625 168.062 42.375C168.042 42.6667 168.031 42.875 168.031 43H152.656C152.656 42.875 152.646 42.6667 152.625 42.375C152.604 42.0625 152.594 41.75 152.594 41.4375C152.948 41.2708 153.635 41.0312 154.656 40.7188C155.448 40.4688 156.021 40.2396 156.375 40.0312C156.75 39.8021 157.031 39.4062 157.219 38.8438C157.427 38.2812 157.531 37.4375 157.531 36.3125V24.9688C157.531 22.6771 157.042 20.8542 156.062 19.5C155.104 18.125 153.594 17.4375 151.531 17.4375C150.052 17.4375 148.615 17.8333 147.219 18.625C145.844 19.3958 144.573 20.3958 143.406 21.625V35.7188C143.406 37.5938 143.833 38.9688 144.688 39.8438C145.542 40.7188 146.938 41.25 148.875 41.4375L148.844 43H132.188C132.188 42.875 132.177 42.6667 132.156 42.375C132.135 42.0625 132.125 41.75 132.125 41.4375C135.771 41.1458 137.594 39.2396 137.594 35.7188V6.625C137.385 6.3125 136.927 5.9375 136.219 5.5C135.51 5.04167 134.76 4.63542 133.969 4.28125C133.198 3.92708 132.625 3.72917 132.25 3.6875V2.59375L141.188 0.21875L143.406 0V19C145.052 17.3542 146.667 16.125 148.25 15.3125C149.833 14.4792 151.667 14.0625 153.75 14.0625C156.646 14.0625 158.969 14.9896 160.719 16.8438C162.469 18.6771 163.344 21.4792 163.344 25.25V36.0938ZM181.719 5.53125C181.719 7.48958 181.521 9.98958 181.125 13.0312C180.729 16.0521 180.156 19.9896 179.406 24.8438L178.844 28.4375C178.823 28.5833 178.781 28.9583 178.719 29.5625C178.677 30.1667 178.573 30.7083 178.406 31.1875C178.26 31.6458 178.052 31.875 177.781 31.875C177.406 31.875 177.146 31.6458 177 31.1875C176.875 30.7292 176.792 30.2812 176.75 29.8438C176.729 29.3854 176.708 29.0833 176.688 28.9375C176.583 28.0417 176.417 26.8854 176.188 25.4688C175.979 24.0312 175.823 23 175.719 22.375C175.073 18.1875 174.573 14.7917 174.219 12.1875C173.885 9.5625 173.719 7.32292 173.719 5.46875C173.719 4.23958 174.052 3.35417 174.719 2.8125C175.406 2.27083 176.385 2 177.656 2C178.865 2 179.844 2.29167 180.594 2.875C181.344 3.45833 181.719 4.34375 181.719 5.53125ZM177.781 36.25C178.469 36.25 179.104 36.4271 179.688 36.7812C180.292 37.1354 180.771 37.6146 181.125 38.2188C181.479 38.8021 181.656 39.4375 181.656 40.125C181.656 41.1875 181.271 42.0833 180.5 42.8125C179.75 43.5417 178.844 43.9062 177.781 43.9062C176.74 43.9062 175.844 43.5417 175.094 42.8125C174.365 42.0625 174 41.1667 174 40.125C174 39.0625 174.365 38.1562 175.094 37.4062C175.823 36.6354 176.719 36.25 177.781 36.25Z" fill="white"/>
<path d="M62.4375 30.4375L63.2994 29.9305L62.9979 29.4179L62.4036 29.4381L62.4375 30.4375ZM62.9375 31.5312L61.9888 31.8475L61.9966 31.8708L62.0055 31.8937L62.9375 31.5312ZM63.4062 33L62.4423 33.2659L62.4571 33.3196L62.4778 33.3714L63.4062 33ZM63.625 33.7188L62.6506 33.9436L62.6583 33.9771L62.6683 34.0099L63.625 33.7188ZM78.7812 40.4688L79.1291 41.4064L79.1372 41.4032L78.7812 40.4688ZM82 38.25L81.2396 37.6005L81.2385 37.6019L82 38.25ZM81.9688 31.1875L81.1893 31.8141L81.1968 31.8232L81.9688 31.1875ZM78.75 28.3438L78.1922 29.1737L78.2 29.1789L78.2079 29.184L78.75 28.3438ZM73.4688 25.1875L73.9544 24.3133L73.9515 24.3117L73.4688 25.1875ZM62.8438 17.3125L62.0373 17.9039L62.0412 17.909L62.8438 17.3125ZM63.1562 6.0625L62.4012 5.40681L62.4006 5.40757L63.1562 6.0625ZM68.4062 2.625L68.7225 3.5737L68.728 3.57183L68.4062 2.625ZM81.2812 2.28125L81.0411 3.25198L81.0434 3.25255L81.2812 2.28125ZM87.0938 4.4375L88.0927 4.39193L88.0662 3.81163L87.549 3.54716L87.0938 4.4375ZM87.5 13.3438V14.3438H88.5467L88.499 13.2982L87.5 13.3438ZM85.5625 13.3438L84.6759 13.8063L84.9563 14.3438H85.5625V13.3438ZM84.6875 11.0625L85.6399 10.7577L85.6365 10.7471L85.6329 10.7365L84.6875 11.0625ZM84.375 10.1562L85.3204 9.83026L85.3198 9.82848L84.375 10.1562ZM80.6875 5.53125L80.1639 6.38334L80.176 6.39054L80.6875 5.53125ZM68.1562 6.375L67.4402 5.6769L67.44 5.67714L68.1562 6.375ZM71.3125 15.25L70.761 16.0843L70.771 16.0907L71.3125 15.25ZM76.4062 18.25L75.9192 19.1234L75.92 19.1238L76.4062 18.25ZM83.125 22.3438L82.5542 23.1649L82.5657 23.1727L83.125 22.3438ZM87.5312 26.5938L86.7216 27.1807L86.7264 27.1873L87.5312 26.5938ZM87.2188 38.7812L87.9877 39.4205L87.9915 39.416L87.2188 38.7812ZM81.625 42.5938L81.2908 41.6512L81.2881 41.6522L81.625 42.5938ZM66.9688 42.9688L66.7518 43.945L66.7608 43.9469L66.9688 42.9688ZM60.5938 40.5938H59.5938V41.1525L60.0697 41.4454L60.5938 40.5938ZM60.5938 30.5L60.5599 29.5006L59.5938 29.5333V30.5H60.5938ZM61.5756 30.9445C61.7498 31.2407 61.8868 31.5415 61.9888 31.8475L63.8862 31.215C63.7382 30.771 63.5419 30.3426 63.2994 29.9305L61.5756 30.9445ZM62.0055 31.8937C62.1343 32.2248 62.2802 32.6786 62.4423 33.2659L64.3702 32.7341C64.1989 32.1131 64.0324 31.5877 63.8695 31.1688L62.0055 31.8937ZM62.4778 33.3714C62.5382 33.5225 62.597 33.7115 62.6506 33.9436L64.5994 33.4939C64.528 33.1844 64.441 32.8942 64.3347 32.6286L62.4778 33.3714ZM62.6683 34.0099C63.4645 36.6258 64.9945 38.6703 67.2466 40.0951L68.3159 38.4049C66.4847 37.2464 65.2439 35.6033 64.5817 33.4276L62.6683 34.0099ZM67.2466 40.0951C69.462 41.4967 71.984 42.1875 74.7812 42.1875V40.1875C72.3285 40.1875 70.1838 39.5867 68.3159 38.4049L67.2466 40.0951ZM74.7812 42.1875C76.2752 42.1875 77.7263 41.9267 79.1291 41.4063L78.4334 39.5312C77.2529 39.9691 76.0373 40.1875 74.7812 40.1875V42.1875ZM79.1372 41.4032C80.592 40.8491 81.8094 40.0169 82.7615 38.8981L81.2385 37.6019C80.524 38.4414 79.5955 39.0884 78.4253 39.5343L79.1372 41.4032ZM82.7604 38.8995C83.7816 37.7039 84.2812 36.2599 84.2812 34.625H82.2812C82.2812 35.8234 81.9267 36.7961 81.2396 37.6005L82.7604 38.8995ZM84.2812 34.625C84.2812 33.136 83.7444 31.7705 82.7407 30.5518L81.1968 31.8232C81.9431 32.7295 82.2812 33.6557 82.2812 34.625H84.2812ZM82.7481 30.5609C81.8189 29.405 80.6625 28.3876 79.2921 27.5035L78.2079 29.184C79.4209 29.9666 80.4103 30.845 81.1894 31.8141L82.7481 30.5609ZM79.3078 27.5138C78.0032 26.6369 76.2149 25.5692 73.9544 24.3133L72.9831 26.0617C75.2226 27.3058 76.9552 28.3423 78.1922 29.1737L79.3078 27.5138ZM73.9515 24.3117C71.3209 22.8618 69.2053 21.5873 67.5956 20.4869L66.4669 22.1381C68.1489 23.2877 70.3249 24.5965 72.986 26.0633L73.9515 24.3117ZM67.5956 20.4869C66.0378 19.4221 64.7235 18.1653 63.6463 16.716L62.0412 17.909C63.2557 19.5431 64.733 20.9529 66.4669 22.1381L67.5956 20.4869ZM63.6502 16.7211C62.6315 15.3321 62.125 13.7793 62.125 12.0312H60.125C60.125 14.1998 60.7643 16.1679 62.0373 17.9039L63.6502 16.7211ZM62.125 12.0312C62.125 9.81227 62.7413 8.06812 63.9119 6.71743L62.4006 5.40757C60.8628 7.18188 60.125 9.4169 60.125 12.0312H62.125ZM63.9113 6.71819C65.1608 5.27929 66.7553 4.2294 68.7225 3.57368L68.09 1.67632C65.8072 2.43727 63.9017 3.67904 62.4012 5.40681L63.9113 6.71819ZM68.728 3.57183C70.7653 2.87953 72.9166 2.53125 75.1875 2.53125V0.53125C72.7084 0.53125 70.3389 0.912134 68.0845 1.67817L68.728 3.57183ZM75.1875 2.53125C77.1466 2.53125 79.0973 2.77104 81.0411 3.25198L81.5214 1.31052C79.4236 0.791464 77.3117 0.53125 75.1875 0.53125V2.53125ZM81.0434 3.25255C83.0113 3.73448 84.8756 4.4264 86.6385 5.32784L87.549 3.54716C85.6452 2.5736 83.6346 1.82802 81.5191 1.30995L81.0434 3.25255ZM86.0948 4.48307L86.501 13.3893L88.499 13.2982L88.0927 4.39193L86.0948 4.48307ZM87.5 12.3438H85.5625V14.3438H87.5V12.3438ZM86.4491 12.8812C86.2404 12.4813 85.9697 11.7883 85.6399 10.7577L83.7351 11.3673C84.072 12.4201 84.3846 13.2479 84.6759 13.8063L86.4491 12.8812ZM85.6329 10.7365L85.3204 9.83026L83.4296 10.4822L83.7421 11.3885L85.6329 10.7365ZM85.3198 9.82848C84.5393 7.57884 83.1645 5.84193 81.199 4.67196L80.176 6.39054C81.7105 7.3039 82.7941 8.65033 83.4302 10.484L85.3198 9.82848ZM81.211 4.67924C79.3062 3.50879 77.1206 2.9375 74.6875 2.9375V4.9375C76.7961 4.9375 78.6105 5.42871 80.164 6.38326L81.211 4.67924ZM74.6875 2.9375C73.4058 2.9375 72.122 3.15523 70.84 3.58257L71.4725 5.47993C72.5655 5.11561 73.6359 4.9375 74.6875 4.9375V2.9375ZM70.84 3.58257C69.5129 4.02494 68.3724 4.72083 67.4402 5.6769L68.8723 7.0731C69.5651 6.3625 70.4246 5.82922 71.4725 5.47993L70.84 3.58257ZM67.44 5.67714C66.4537 6.68939 65.9688 7.95595 65.9688 9.40625H67.9688C67.9688 8.43988 68.2754 7.68561 68.8725 7.07286L67.44 5.67714ZM65.9688 9.40625C65.9688 10.8024 66.4933 12.078 67.4572 13.2106L68.9803 11.9144C68.2775 11.0887 67.9688 10.2601 67.9688 9.40625H65.9688ZM67.4572 13.2106C68.3596 14.2709 69.4647 15.2273 70.7611 16.0842L71.8639 14.4158C70.702 13.6477 69.7446 12.8124 68.9803 11.9144L67.4572 13.2106ZM70.771 16.0907C72.026 16.899 73.7448 17.9107 75.9192 19.1234L76.8933 17.3766C74.7343 16.1726 73.0573 15.1843 71.854 14.4093L70.771 16.0907ZM75.92 19.1238C78.6752 20.6568 80.8834 22.0034 82.5542 23.1649L83.6958 21.5226C81.95 20.3091 79.679 18.9266 76.8925 17.3762L75.92 19.1238ZM82.5657 23.1727C84.1992 24.2749 85.5829 25.61 86.7216 27.1807L88.3409 26.0068C87.063 24.2442 85.5091 22.746 83.6843 21.5148L82.5657 23.1727ZM86.7264 27.1873C87.8266 28.6791 88.375 30.3558 88.375 32.25H90.375C90.375 29.9359 89.6942 27.8417 88.3361 26.0002L86.7264 27.1873ZM88.375 32.25C88.375 34.6592 87.7149 36.6018 86.446 38.1465L87.9915 39.416C89.5976 37.4607 90.375 35.0491 90.375 32.25H88.375ZM86.4498 38.142C85.1366 39.7216 83.4272 40.8938 81.2908 41.6512L81.9592 43.5363C84.4061 42.6687 86.4259 41.2992 87.9877 39.4205L86.4498 38.142ZM81.2881 41.6522C79.132 42.4237 76.8299 42.8125 74.375 42.8125V44.8125C77.0451 44.8125 79.5763 44.3888 81.9619 43.5353L81.2881 41.6522ZM74.375 42.8125C72.1644 42.8125 69.766 42.5411 67.1767 41.9906L66.7608 43.9469C69.4631 44.5214 72.0023 44.8125 74.375 44.8125V42.8125ZM67.1857 41.9926C64.6284 41.4243 62.618 40.6653 61.1178 39.7421L60.0697 41.4454C61.8195 42.5222 64.0591 43.3465 66.7518 43.9449L67.1857 41.9926ZM61.5938 40.5938V30.5H59.5938V40.5938H61.5938ZM60.6276 31.4994L62.4714 31.4369L62.4036 29.4381L60.5599 29.5006L60.6276 31.4994ZM126.5 39.875L125.752 40.5383L125.76 40.5473L125.768 40.5561L126.5 39.875ZM130.031 41.4375H131.031V40.5288L130.127 40.4421L130.031 41.4375ZM130 42.375L130.997 42.4462L130.998 42.4415L130 42.375ZM129.969 43V44H130.969V43H129.969ZM114.594 43H113.594V44H114.594V43ZM114.562 42.375L113.565 42.4415L113.565 42.4462L114.562 42.375ZM114.531 41.4375L114.105 40.5327L113.531 40.8029V41.4375H114.531ZM116.594 40.7188L116.886 41.675L116.895 41.6723L116.594 40.7188ZM118.312 40.0312L118.82 40.8932L118.827 40.8889L118.834 40.8845L118.312 40.0312ZM119.156 38.8438L118.219 38.4964L118.213 38.5119L118.208 38.5275L119.156 38.8438ZM118 19.5L117.18 20.0718L117.185 20.0789L117.19 20.0859L118 19.5ZM109.156 18.625L109.645 19.4973L109.65 19.4948L109.156 18.625ZM105.344 21.625L104.618 20.9366L104.344 21.226V21.625H105.344ZM110.812 41.4375L111.812 41.4575L111.831 40.5314L110.909 40.4422L110.812 41.4375ZM110.781 43V44H111.761L111.781 43.02L110.781 43ZM94.125 43H93.125V44H94.125V43ZM94.0938 42.375L93.096 42.4415L93.0963 42.4462L94.0938 42.375ZM94.0625 41.4375L93.9828 40.4407L93.0625 40.5143V41.4375H94.0625ZM99.5312 6.625H100.531V6.32222L100.363 6.0703L99.5312 6.625ZM98.1562 5.5L97.613 6.33957L97.6218 6.34528L97.6308 6.3508L98.1562 5.5ZM95.9062 4.28125L95.4887 5.18997L95.4979 5.19407L95.9062 4.28125ZM94.1875 3.6875H93.1875V4.58254L94.0771 4.68138L94.1875 3.6875ZM94.1875 2.59375L93.9307 1.62729L93.1875 1.82478V2.59375H94.1875ZM103.125 0.21875L103.027 -0.776424L102.946 -0.768486L102.868 -0.747709L103.125 0.21875ZM105.344 0H106.344V-1.10344L105.246 -0.995174L105.344 0ZM105.344 19H104.344V21.4142L106.051 19.7071L105.344 19ZM110.188 15.3125L110.644 16.2022L110.653 16.1974L110.188 15.3125ZM122.656 16.8438L121.929 17.5301L121.933 17.5342L122.656 16.8438ZM124.281 36.0938C124.281 37.8651 124.732 39.3881 125.752 40.5383L127.248 39.2117C126.643 38.5285 126.281 37.5308 126.281 36.0938H124.281ZM125.768 40.5561C126.806 41.6725 128.234 42.2698 129.936 42.4329L130.127 40.4421C128.787 40.3136 127.86 39.8692 127.232 39.1939L125.768 40.5561ZM129.031 41.4375C129.031 41.7278 129.022 42.0181 129.002 42.3085L130.998 42.4415C131.02 42.1069 131.031 41.7722 131.031 41.4375H129.031ZM129.003 42.3038C128.982 42.5963 128.969 42.836 128.969 43H130.969C130.969 42.914 130.977 42.7371 130.997 42.4462L129.003 42.3038ZM129.969 42H114.594V44H129.969V42ZM115.594 43C115.594 42.836 115.581 42.5963 115.56 42.3038L113.565 42.4462C113.586 42.7371 113.594 42.914 113.594 43H115.594ZM115.56 42.3085C115.541 42.0181 115.531 41.7278 115.531 41.4375H113.531C113.531 41.7722 113.542 42.1069 113.565 42.4415L115.56 42.3085ZM114.957 42.3423C115.237 42.2104 115.859 41.9895 116.886 41.6749L116.301 39.7626C115.287 40.073 114.533 40.3313 114.105 40.5327L114.957 42.3423ZM116.895 41.6723C117.701 41.4177 118.364 41.1614 118.82 40.8932L117.805 39.1693C117.553 39.3178 117.07 39.5198 116.293 39.7652L116.895 41.6723ZM118.834 40.8845C119.471 40.4952 119.869 39.8679 120.105 39.16L118.208 38.5275C118.069 38.9446 117.904 39.109 117.791 39.178L118.834 40.8845ZM120.094 39.1911C120.365 38.4587 120.469 37.471 120.469 36.3125H118.469C118.469 37.404 118.364 38.1038 118.219 38.4964L120.094 39.1911ZM120.469 36.3125V24.9688H118.469V36.3125H120.469ZM120.469 24.9688C120.469 22.5432 119.951 20.4917 118.81 18.9141L117.19 20.0859C118.007 21.2166 118.469 22.811 118.469 24.9688H120.469ZM118.82 18.9282C117.631 17.2219 115.773 16.4375 113.469 16.4375V18.4375C115.289 18.4375 116.452 19.0281 117.18 20.0718L118.82 18.9282ZM113.469 16.4375C111.802 16.4375 110.196 16.8856 108.663 17.7552L109.65 19.4948C110.908 18.781 112.177 18.4375 113.469 18.4375V16.4375ZM108.667 17.7527C107.198 18.5762 105.849 19.6401 104.618 20.9366L106.069 22.3134C107.172 21.1516 108.364 20.2155 109.645 19.4973L108.667 17.7527ZM104.344 21.625V35.7188H106.344V21.625H104.344ZM104.344 35.7188C104.344 37.7189 104.796 39.4017 105.909 40.5423L107.341 39.1452C106.746 38.5358 106.344 37.4686 106.344 35.7188H104.344ZM105.909 40.5423C107.002 41.6611 108.675 42.2353 110.716 42.4328L110.909 40.4422C109.075 40.2647 107.957 39.7764 107.341 39.1452L105.909 40.5423ZM109.813 41.4175L109.781 42.98L111.781 43.02L111.812 41.4575L109.813 41.4175ZM110.781 42H94.125V44H110.781V42ZM95.125 43C95.125 42.836 95.1121 42.5963 95.0912 42.3038L93.0963 42.4462C93.1171 42.7371 93.125 42.914 93.125 43H95.125ZM95.0915 42.3085C95.0722 42.0181 95.0625 41.7278 95.0625 41.4375H93.0625C93.0625 41.7722 93.0737 42.1069 93.096 42.4415L95.0915 42.3085ZM94.1422 42.4343C96.115 42.2765 97.7499 41.669 98.8868 40.4802C100.029 39.2856 100.531 37.6482 100.531 35.7188H98.5312C98.5312 37.3101 98.1219 38.3863 97.4413 39.0979C96.7553 39.8154 95.6558 40.3068 93.9828 40.4407L94.1422 42.4343ZM100.531 35.7188V6.625H98.5312V35.7188H100.531ZM100.363 6.0703C100.025 5.56248 99.3989 5.09213 98.6817 4.6492L97.6308 6.3508C98.3303 6.78287 98.6211 7.06252 98.6992 7.1797L100.363 6.0703ZM98.6995 4.66043C97.947 4.17349 97.1517 3.74294 96.3146 3.36843L95.4979 5.19407C96.2441 5.52789 96.9489 5.90984 97.613 6.33957L98.6995 4.66043ZM96.3237 3.37257C95.5463 3.01538 94.8463 2.75455 94.2979 2.69362L94.0771 4.68138C94.2787 4.70378 94.7245 4.83879 95.4888 5.18993L96.3237 3.37257ZM95.1875 3.6875V2.59375H93.1875V3.6875H95.1875ZM94.4443 3.56021L103.382 1.18521L102.868 -0.747709L93.9307 1.62729L94.4443 3.56021ZM103.223 1.21392L105.442 0.995174L105.246 -0.995174L103.027 -0.776424L103.223 1.21392ZM104.344 0V19H106.344V0H104.344ZM106.051 19.7071C107.644 18.1135 109.177 16.9552 110.644 16.2022L109.731 14.4228C108.032 15.2948 106.335 16.5948 104.637 18.2929L106.051 19.7071ZM110.653 16.1974C112.071 15.4512 113.74 15.0625 115.688 15.0625V13.0625C113.469 13.0625 111.471 13.5071 109.722 14.4276L110.653 16.1974ZM115.688 15.0625C118.349 15.0625 120.394 15.9042 121.929 17.5301L123.383 16.1574C121.418 14.075 118.818 13.0625 115.688 13.0625V15.0625ZM121.933 17.5342C123.435 19.1081 124.281 21.6128 124.281 25.25H126.281C126.281 21.3455 125.377 18.246 123.38 16.1533L121.933 17.5342ZM124.281 25.25V36.0938H126.281V25.25H124.281ZM164.562 39.875L163.814 40.5383L163.822 40.5473L163.83 40.5561L164.562 39.875ZM168.094 41.4375H169.094V40.5288L168.189 40.4421L168.094 41.4375ZM168.062 42.375L169.06 42.4462L169.06 42.4415L168.062 42.375ZM168.031 43V44H169.031V43H168.031ZM152.656 43H151.656V44H152.656V43ZM152.625 42.375L151.627 42.4415L151.628 42.4462L152.625 42.375ZM152.594 41.4375L152.168 40.5327L151.594 40.8029V41.4375H152.594ZM154.656 40.7188L154.949 41.675L154.957 41.6723L154.656 40.7188ZM156.375 40.0312L156.882 40.8932L156.889 40.8889L156.896 40.8845L156.375 40.0312ZM157.219 38.8438L156.281 38.4964L156.275 38.5119L156.27 38.5275L157.219 38.8438ZM156.062 19.5L155.242 20.0718L155.247 20.0789L155.252 20.0859L156.062 19.5ZM147.219 18.625L147.708 19.4973L147.712 19.4948L147.219 18.625ZM143.406 21.625L142.681 20.9366L142.406 21.226V21.625H143.406ZM148.875 41.4375L149.875 41.4575L149.893 40.5314L148.971 40.4422L148.875 41.4375ZM148.844 43V44H149.824L149.844 43.02L148.844 43ZM132.188 43H131.188V44H132.188V43ZM132.156 42.375L131.158 42.4415L131.159 42.4462L132.156 42.375ZM132.125 41.4375L132.045 40.4407L131.125 40.5143V41.4375H132.125ZM137.594 6.625H138.594V6.32222L138.426 6.0703L137.594 6.625ZM136.219 5.5L135.675 6.33957L135.684 6.34528L135.693 6.3508L136.219 5.5ZM133.969 4.28125L133.551 5.18997L133.56 5.19407L133.969 4.28125ZM132.25 3.6875H131.25V4.58254L132.14 4.68138L132.25 3.6875ZM132.25 2.59375L131.993 1.62729L131.25 1.82478V2.59375H132.25ZM141.188 0.21875L141.089 -0.776424L141.009 -0.768486L140.931 -0.747709L141.188 0.21875ZM143.406 0H144.406V-1.10344L143.308 -0.995174L143.406 0ZM143.406 19H142.406V21.4142L144.113 19.7071L143.406 19ZM148.25 15.3125L148.707 16.2022L148.716 16.1974L148.25 15.3125ZM160.719 16.8438L159.992 17.5301L159.995 17.5342L160.719 16.8438ZM162.344 36.0938C162.344 37.8651 162.795 39.3881 163.814 40.5383L165.311 39.2117C164.705 38.5285 164.344 37.5308 164.344 36.0938H162.344ZM163.83 40.5561C164.869 41.6725 166.297 42.2698 167.998 42.4329L168.189 40.4421C166.849 40.3136 165.923 39.8692 165.295 39.1939L163.83 40.5561ZM167.094 41.4375C167.094 41.7278 167.084 42.0181 167.065 42.3085L169.06 42.4415C169.083 42.1069 169.094 41.7722 169.094 41.4375H167.094ZM167.065 42.3038C167.044 42.5963 167.031 42.836 167.031 43H169.031C169.031 42.914 169.039 42.7371 169.06 42.4462L167.065 42.3038ZM168.031 42H152.656V44H168.031V42ZM153.656 43C153.656 42.836 153.643 42.5963 153.622 42.3038L151.628 42.4462C151.648 42.7371 151.656 42.914 151.656 43H153.656ZM153.623 42.3085C153.603 42.0181 153.594 41.7278 153.594 41.4375H151.594C151.594 41.7722 151.605 42.1069 151.627 42.4415L153.623 42.3085ZM153.02 42.3423C153.3 42.2104 153.922 41.9895 154.949 41.6749L154.364 39.7626C153.349 40.073 152.596 40.3313 152.168 40.5327L153.02 42.3423ZM154.957 41.6723C155.764 41.4177 156.426 41.1614 156.882 40.8932L155.868 39.1693C155.616 39.3178 155.132 39.5198 154.355 39.7652L154.957 41.6723ZM156.896 40.8845C157.534 40.4952 157.931 39.8679 158.167 39.16L156.27 38.5275C156.131 38.9446 155.966 39.109 155.854 39.178L156.896 40.8845ZM158.157 39.1911C158.428 38.4587 158.531 37.471 158.531 36.3125H156.531C156.531 37.404 156.426 38.1038 156.281 38.4964L158.157 39.1911ZM158.531 36.3125V24.9688H156.531V36.3125H158.531ZM158.531 24.9688C158.531 22.5432 158.014 20.4917 156.873 18.9141L155.252 20.0859C156.07 21.2166 156.531 22.811 156.531 24.9688H158.531ZM156.883 18.9282C155.694 17.2219 153.836 16.4375 151.531 16.4375V18.4375C153.352 18.4375 154.515 19.0281 155.242 20.0718L156.883 18.9282ZM151.531 16.4375C149.865 16.4375 148.259 16.8856 146.725 17.7552L147.712 19.4948C148.971 18.781 150.24 18.4375 151.531 18.4375V16.4375ZM146.73 17.7527C145.261 18.5762 143.912 19.6401 142.681 20.9366L144.132 22.3134C145.234 21.1516 146.427 20.2155 147.708 19.4973L146.73 17.7527ZM142.406 21.625V35.7188H144.406V21.625H142.406ZM142.406 35.7188C142.406 37.7189 142.859 39.4017 143.972 40.5423L145.403 39.1452C144.808 38.5358 144.406 37.4686 144.406 35.7188H142.406ZM143.972 40.5423C145.064 41.6611 146.737 42.2353 148.779 42.4328L148.971 40.4422C147.138 40.2647 146.019 39.7764 145.403 39.1452L143.972 40.5423ZM147.875 41.4175L147.844 42.98L149.844 43.02L149.875 41.4575L147.875 41.4175ZM148.844 42H132.188V44H148.844V42ZM133.188 43C133.188 42.836 133.175 42.5963 133.154 42.3038L131.159 42.4462C131.18 42.7371 131.188 42.914 131.188 43H133.188ZM133.154 42.3085C133.135 42.0181 133.125 41.7278 133.125 41.4375H131.125C131.125 41.7722 131.136 42.1069 131.158 42.4415L133.154 42.3085ZM132.205 42.4343C134.178 42.2765 135.812 41.669 136.949 40.4802C138.092 39.2856 138.594 37.6482 138.594 35.7188H136.594C136.594 37.3101 136.184 38.3863 135.504 39.0979C134.818 39.8154 133.718 40.3068 132.045 40.4407L132.205 42.4343ZM138.594 35.7188V6.625H136.594V35.7188H138.594ZM138.426 6.0703C138.087 5.56248 137.461 5.09213 136.744 4.6492L135.693 6.3508C136.393 6.78287 136.684 7.06252 136.762 7.1797L138.426 6.0703ZM136.762 4.66043C136.009 4.17349 135.214 3.74294 134.377 3.36843L133.56 5.19407C134.307 5.52789 135.011 5.90984 135.675 6.33957L136.762 4.66043ZM134.386 3.37257C133.609 3.01538 132.909 2.75455 132.36 2.69362L132.14 4.68138C132.341 4.70378 132.787 4.83879 133.551 5.18993L134.386 3.37257ZM133.25 3.6875V2.59375H131.25V3.6875H133.25ZM132.507 3.56021L141.444 1.18521L140.931 -0.747709L131.993 1.62729L132.507 3.56021ZM141.286 1.21392L143.504 0.995174L143.308 -0.995174L141.089 -0.776424L141.286 1.21392ZM142.406 0V19H144.406V0H142.406ZM144.113 19.7071C145.707 18.1135 147.239 16.9552 148.707 16.2022L147.793 14.4228C146.094 15.2948 144.397 16.5948 142.699 18.2929L144.113 19.7071ZM148.716 16.1974C150.134 15.4512 151.802 15.0625 153.75 15.0625V13.0625C151.531 13.0625 149.533 13.5071 147.784 14.4276L148.716 16.1974ZM153.75 15.0625C156.412 15.0625 158.457 15.9042 159.992 17.5301L161.446 16.1574C159.481 14.075 156.88 13.0625 153.75 13.0625V15.0625ZM159.995 17.5342C161.498 19.1081 162.344 21.6128 162.344 25.25H164.344C164.344 21.3455 163.44 18.246 161.442 16.1533L159.995 17.5342ZM162.344 25.25V36.0938H164.344V25.25H162.344ZM181.125 13.0312L182.117 13.1612L182.117 13.1603L181.125 13.0312ZM179.406 24.8438L180.394 24.9984L180.395 24.9964L179.406 24.8438ZM178.844 28.4375L177.856 28.2828L177.854 28.2961L178.844 28.4375ZM178.719 29.5625L177.724 29.4596L177.722 29.4766L177.721 29.4937L178.719 29.5625ZM178.406 31.1875L177.462 30.859L177.457 30.8716L177.453 30.8843L178.406 31.1875ZM177 31.1875L176.035 31.4506L176.041 31.4708L176.047 31.4907L177 31.1875ZM176.75 29.8438L175.751 29.8892L175.752 29.9139L175.755 29.9386L176.75 29.8438ZM176.688 28.9375L175.694 29.053L175.696 29.066L175.698 29.0789L176.688 28.9375ZM176.188 25.4688L175.198 25.6122L175.199 25.6203L175.2 25.6284L176.188 25.4688ZM175.719 22.375L174.73 22.5274L174.732 22.5394L175.719 22.375ZM174.219 12.1875L173.227 12.3135L173.228 12.3223L174.219 12.1875ZM174.719 2.8125L174.1 2.02701L174.094 2.03165L174.088 2.03639L174.719 2.8125ZM179.688 36.7812L179.169 37.636L179.175 37.64L179.182 37.6439L179.688 36.7812ZM181.125 38.2188L180.262 38.7245L180.266 38.7311L180.27 38.7377L181.125 38.2188ZM180.5 42.8125L179.813 42.086L179.803 42.0955L180.5 42.8125ZM175.094 42.8125L174.377 43.5096L174.387 43.5197L174.397 43.5295L175.094 42.8125ZM175.094 37.4062L175.811 38.1034L175.82 38.0934L175.094 37.4062ZM180.719 5.53125C180.719 7.42944 180.526 9.88229 180.133 12.9022L182.117 13.1603C182.515 10.0969 182.719 7.54973 182.719 5.53125H180.719ZM180.133 12.9013C179.739 15.9114 179.167 19.8405 178.418 24.6911L180.395 24.9964C181.145 20.1387 181.719 16.1928 182.117 13.1612L180.133 12.9013ZM178.418 24.6891L177.856 28.2829L179.832 28.5921L180.394 24.9984L178.418 24.6891ZM177.854 28.2961C177.83 28.4656 177.786 28.863 177.724 29.4596L179.713 29.6654C179.777 29.0536 179.816 28.7011 179.834 28.5789L177.854 28.2961ZM177.721 29.4937C177.684 30.0259 177.594 30.478 177.462 30.859L179.351 31.516C179.552 30.9387 179.67 30.3075 179.716 29.6313L177.721 29.4937ZM177.453 30.8843C177.43 30.9579 177.41 31.0044 177.396 31.0303C177.383 31.0569 177.381 31.0516 177.401 31.0305C177.421 31.0077 177.467 30.9655 177.541 30.9299C177.619 30.8928 177.703 30.875 177.781 30.875V32.875C178.773 32.875 179.195 32.0052 179.359 31.4907L177.453 30.8843ZM177.781 30.875C177.79 30.875 177.82 30.8767 177.861 30.8913C177.903 30.9064 177.939 30.9291 177.965 30.9524C178.014 30.9954 177.991 31.0045 177.953 30.8843L176.047 31.4907C176.155 31.8288 176.335 32.1817 176.644 32.4538C176.972 32.7426 177.372 32.875 177.781 32.875V30.875ZM177.965 30.9244C177.854 30.5168 177.781 30.1252 177.745 29.7489L175.755 29.9386C175.802 30.4373 175.896 30.9416 176.035 31.4506L177.965 30.9244ZM177.749 29.7983C177.729 29.3494 177.706 28.9981 177.677 28.7961L175.698 29.0789C175.71 29.1686 175.73 29.4214 175.751 29.8892L177.749 29.7983ZM177.681 28.822C177.574 27.9054 177.405 26.7329 177.175 25.3091L175.2 25.6284C175.428 27.0379 175.592 28.1779 175.694 29.053L177.681 28.822ZM177.177 25.3253C176.969 23.8874 176.811 22.847 176.705 22.2106L174.732 22.5394C174.835 23.153 174.99 24.1751 175.198 25.6122L177.177 25.3253ZM176.707 22.2226C176.062 18.0379 175.563 14.6486 175.21 12.0527L173.228 12.3223C173.583 14.9348 174.084 18.3371 174.73 22.5274L176.707 22.2226ZM175.211 12.0615C174.881 9.46226 174.719 7.26724 174.719 5.46875H172.719C172.719 7.37859 172.89 9.66274 173.227 12.3135L175.211 12.0615ZM174.719 5.46875C174.719 4.40557 175.004 3.86902 175.349 3.58861L174.088 2.03639C173.1 2.83931 172.719 4.0736 172.719 5.46875H174.719ZM175.338 3.59799C175.785 3.24583 176.512 3 177.656 3V1C176.259 1 175.028 1.29583 174.1 2.02701L175.338 3.59799ZM177.656 3C178.703 3 179.448 3.25091 179.98 3.66435L181.208 2.08565C180.239 1.33242 179.026 1 177.656 1V3ZM179.98 3.66435C180.426 4.01156 180.719 4.56739 180.719 5.53125H182.719C182.719 4.12011 182.261 2.90511 181.208 2.08565L179.98 3.66435ZM177.781 37.25C178.287 37.25 178.743 37.3776 179.169 37.636L180.206 35.9265C179.465 35.4766 178.65 35.25 177.781 35.25V37.25ZM179.182 37.6439C179.638 37.9116 179.995 38.2679 180.262 38.7245L181.988 37.713C181.547 36.9613 180.945 36.3592 180.193 35.9186L179.182 37.6439ZM180.27 38.7377C180.529 39.1634 180.656 39.6191 180.656 40.125H182.656C182.656 39.2559 182.43 38.4408 181.98 37.6998L180.27 38.7377ZM180.656 40.125C180.656 40.9131 180.384 41.546 179.813 42.086L181.187 43.539C182.158 42.6206 182.656 41.4619 182.656 40.125H180.656ZM179.803 42.0955C179.243 42.64 178.588 42.9062 177.781 42.9062V44.9062C179.1 44.9062 180.257 44.4433 181.197 43.5295L179.803 42.0955ZM177.781 42.9062C177.001 42.9062 176.355 42.644 175.791 42.0955L174.397 43.5295C175.332 44.4393 176.478 44.9062 177.781 44.9062V42.9062ZM175.811 42.1154C175.262 41.5512 175 40.9051 175 40.125H173C173 41.4282 173.467 42.5738 174.377 43.5096L175.811 42.1154ZM175 40.125C175 39.3183 175.266 38.6634 175.811 38.1033L174.377 36.7092C173.463 37.6491 173 38.8067 173 40.125H175ZM175.82 38.0934C176.36 37.5226 176.993 37.25 177.781 37.25V35.25C176.444 35.25 175.286 35.7482 174.367 36.7191L175.82 38.0934Z" fill="white"/>
</g>
<path d="M14.3095 61.21C14.3095 62.95 13.7095 64.4 12.5095 65.56C11.3295 66.7 9.51953 67.27 7.07953 67.27H3.05953V76H0.329531V55.09H7.07953C9.43953 55.09 11.2295 55.66 12.4495 56.8C13.6895 57.94 14.3095 59.41 14.3095 61.21ZM7.07953 65.02C8.59953 65.02 9.71953 64.69 10.4395 64.03C11.1595 63.37 11.5195 62.43 11.5195 61.21C11.5195 58.63 10.0395 57.34 7.07953 57.34H3.05953V65.02H7.07953ZM20.4326 62.23C20.9126 61.29 21.5926 60.56 22.4726 60.04C23.3726 59.52 24.4626 59.26 25.7426 59.26V62.08H25.0226C21.9626 62.08 20.4326 63.74 20.4326 67.06V76H17.7026V59.56H20.4326V62.23ZM43.894 67.15C43.894 67.67 43.864 68.22 43.804 68.8H30.664C30.764 70.42 31.314 71.69 32.314 72.61C33.334 73.51 34.564 73.96 36.004 73.96C37.184 73.96 38.164 73.69 38.944 73.15C39.744 72.59 40.304 71.85 40.624 70.93H43.564C43.124 72.51 42.244 73.8 40.924 74.8C39.604 75.78 37.964 76.27 36.004 76.27C34.444 76.27 33.044 75.92 31.804 75.22C30.584 74.52 29.624 73.53 28.924 72.25C28.224 70.95 27.874 69.45 27.874 67.75C27.874 66.05 28.214 64.56 28.894 63.28C29.574 62 30.524 61.02 31.744 60.34C32.984 59.64 34.404 59.29 36.004 59.29C37.564 59.29 38.944 59.63 40.144 60.31C41.344 60.99 42.264 61.93 42.904 63.13C43.564 64.31 43.894 65.65 43.894 67.15ZM41.074 66.58C41.074 65.54 40.844 64.65 40.384 63.91C39.924 63.15 39.294 62.58 38.494 62.2C37.714 61.8 36.844 61.6 35.884 61.6C34.504 61.6 33.324 62.04 32.344 62.92C31.384 63.8 30.834 65.02 30.694 66.58H41.074ZM46.4775 67.75C46.4775 66.05 46.8175 64.57 47.4975 63.31C48.1775 62.03 49.1175 61.04 50.3175 60.34C51.5375 59.64 52.9275 59.29 54.4875 59.29C56.5075 59.29 58.1675 59.78 59.4675 60.76C60.7875 61.74 61.6575 63.1 62.0775 64.84H59.1375C58.8575 63.84 58.3075 63.05 57.4875 62.47C56.6875 61.89 55.6875 61.6 54.4875 61.6C52.9275 61.6 51.6675 62.14 50.7075 63.22C49.7475 64.28 49.2675 65.79 49.2675 67.75C49.2675 69.73 49.7475 71.26 50.7075 72.34C51.6675 73.42 52.9275 73.96 54.4875 73.96C55.6875 73.96 56.6875 73.68 57.4875 73.12C58.2875 72.56 58.8375 71.76 59.1375 70.72H62.0775C61.6375 72.4 60.7575 73.75 59.4375 74.77C58.1175 75.77 56.4675 76.27 54.4875 76.27C52.9275 76.27 51.5375 75.92 50.3175 75.22C49.1175 74.52 48.1775 73.53 47.4975 72.25C46.8175 70.97 46.4775 69.47 46.4775 67.75ZM67.1302 56.89C66.6102 56.89 66.1702 56.71 65.8102 56.35C65.4502 55.99 65.2702 55.55 65.2702 55.03C65.2702 54.51 65.4502 54.07 65.8102 53.71C66.1702 53.35 66.6102 53.17 67.1302 53.17C67.6302 53.17 68.0502 53.35 68.3902 53.71C68.7502 54.07 68.9302 54.51 68.9302 55.03C68.9302 55.55 68.7502 55.99 68.3902 56.35C68.0502 56.71 67.6302 56.89 67.1302 56.89ZM68.4502 59.56V76H65.7202V59.56H68.4502ZM78.923 76.27C77.663 76.27 76.533 76.06 75.533 75.64C74.533 75.2 73.743 74.6 73.163 73.84C72.583 73.06 72.263 72.17 72.203 71.17H75.023C75.103 71.99 75.483 72.66 76.163 73.18C76.863 73.7 77.773 73.96 78.893 73.96C79.933 73.96 80.753 73.73 81.353 73.27C81.953 72.81 82.253 72.23 82.253 71.53C82.253 70.81 81.933 70.28 81.293 69.94C80.653 69.58 79.663 69.23 78.323 68.89C77.103 68.57 76.103 68.25 75.323 67.93C74.563 67.59 73.903 67.1 73.343 66.46C72.803 65.8 72.533 64.94 72.533 63.88C72.533 63.04 72.783 62.27 73.283 61.57C73.783 60.87 74.493 60.32 75.413 59.92C76.333 59.5 77.383 59.29 78.563 59.29C80.383 59.29 81.853 59.75 82.973 60.67C84.093 61.59 84.693 62.85 84.773 64.45H82.043C81.983 63.59 81.633 62.9 80.993 62.38C80.373 61.86 79.533 61.6 78.473 61.6C77.493 61.6 76.713 61.81 76.133 62.23C75.553 62.65 75.263 63.2 75.263 63.88C75.263 64.42 75.433 64.87 75.773 65.23C76.133 65.57 76.573 65.85 77.093 66.07C77.633 66.27 78.373 66.5 79.313 66.76C80.493 67.08 81.453 67.4 82.193 67.72C82.933 68.02 83.563 68.48 84.083 69.1C84.623 69.72 84.903 70.53 84.923 71.53C84.923 72.43 84.673 73.24 84.173 73.96C83.673 74.68 82.963 75.25 82.043 75.67C81.143 76.07 80.103 76.27 78.923 76.27ZM95.9468 76.27C94.4068 76.27 93.0068 75.92 91.7468 75.22C90.5068 74.52 89.5268 73.53 88.8068 72.25C88.1068 70.95 87.7568 69.45 87.7568 67.75C87.7568 66.07 88.1168 64.59 88.8368 63.31C89.5768 62.01 90.5768 61.02 91.8368 60.34C93.0968 59.64 94.5068 59.29 96.0668 59.29C97.6268 59.29 99.0368 59.64 100.297 60.34C101.557 61.02 102.547 62 103.267 63.28C104.007 64.56 104.377 66.05 104.377 67.75C104.377 69.45 103.997 70.95 103.237 72.25C102.497 73.53 101.487 74.52 100.207 75.22C98.9268 75.92 97.5068 76.27 95.9468 76.27ZM95.9468 73.87C96.9268 73.87 97.8468 73.64 98.7068 73.18C99.5668 72.72 100.257 72.03 100.777 71.11C101.317 70.19 101.587 69.07 101.587 67.75C101.587 66.43 101.327 65.31 100.807 64.39C100.287 63.47 99.6068 62.79 98.7668 62.35C97.9268 61.89 97.0168 61.66 96.0368 61.66C95.0368 61.66 94.1168 61.89 93.2768 62.35C92.4568 62.79 91.7968 63.47 91.2968 64.39C90.7968 65.31 90.5468 66.43 90.5468 67.75C90.5468 69.09 90.7868 70.22 91.2668 71.14C91.7668 72.06 92.4268 72.75 93.2468 73.21C94.0668 73.65 94.9668 73.87 95.9468 73.87ZM114.944 67.72C114.944 66.04 115.284 64.57 115.964 63.31C116.644 62.03 117.574 61.04 118.754 60.34C119.954 59.64 121.294 59.29 122.774 59.29C124.054 59.29 125.244 59.59 126.344 60.19C127.444 60.77 128.284 61.54 128.864 62.5V53.8H131.624V76H128.864V72.91C128.324 73.89 127.524 74.7 126.464 75.34C125.404 75.96 124.164 76.27 122.744 76.27C121.284 76.27 119.954 75.91 118.754 75.19C117.574 74.47 116.644 73.46 115.964 72.16C115.284 70.86 114.944 69.38 114.944 67.72ZM128.864 67.75C128.864 66.51 128.614 65.43 128.114 64.51C127.614 63.59 126.934 62.89 126.074 62.41C125.234 61.91 124.304 61.66 123.284 61.66C122.264 61.66 121.334 61.9 120.494 62.38C119.654 62.86 118.984 63.56 118.484 64.48C117.984 65.4 117.734 66.48 117.734 67.72C117.734 68.98 117.984 70.08 118.484 71.02C118.984 71.94 119.654 72.65 120.494 73.15C121.334 73.63 122.264 73.87 123.284 73.87C124.304 73.87 125.234 73.63 126.074 73.15C126.934 72.65 127.614 71.94 128.114 71.02C128.614 70.08 128.864 68.99 128.864 67.75ZM151.238 67.15C151.238 67.67 151.208 68.22 151.148 68.8H138.008C138.108 70.42 138.658 71.69 139.658 72.61C140.678 73.51 141.908 73.96 143.348 73.96C144.528 73.96 145.508 73.69 146.288 73.15C147.088 72.59 147.648 71.85 147.968 70.93H150.908C150.468 72.51 149.588 73.8 148.268 74.8C146.948 75.78 145.308 76.27 143.348 76.27C141.788 76.27 140.388 75.92 139.148 75.22C137.928 74.52 136.968 73.53 136.268 72.25C135.568 70.95 135.218 69.45 135.218 67.75C135.218 66.05 135.558 64.56 136.238 63.28C136.918 62 137.868 61.02 139.088 60.34C140.328 59.64 141.748 59.29 143.348 59.29C144.908 59.29 146.288 59.63 147.488 60.31C148.688 60.99 149.608 61.93 150.248 63.13C150.908 64.31 151.238 65.65 151.238 67.15ZM148.418 66.58C148.418 65.54 148.188 64.65 147.728 63.91C147.268 63.15 146.638 62.58 145.838 62.2C145.058 61.8 144.188 61.6 143.228 61.6C141.848 61.6 140.668 62.04 139.688 62.92C138.728 63.8 138.178 65.02 138.038 66.58H148.418ZM161.819 67.72C161.819 66.04 162.159 64.57 162.839 63.31C163.519 62.03 164.449 61.04 165.629 60.34C166.829 59.64 168.159 59.29 169.619 59.29C171.059 59.29 172.309 59.6 173.369 60.22C174.429 60.84 175.219 61.62 175.739 62.56V59.56H178.499V76H175.739V72.94C175.199 73.9 174.389 74.7 173.309 75.34C172.249 75.96 171.009 76.27 169.589 76.27C168.129 76.27 166.809 75.91 165.629 75.19C164.449 74.47 163.519 73.46 162.839 72.16C162.159 70.86 161.819 69.38 161.819 67.72ZM175.739 67.75C175.739 66.51 175.489 65.43 174.989 64.51C174.489 63.59 173.809 62.89 172.949 62.41C172.109 61.91 171.179 61.66 170.159 61.66C169.139 61.66 168.209 61.9 167.369 62.38C166.529 62.86 165.859 63.56 165.359 64.48C164.859 65.4 164.609 66.48 164.609 67.72C164.609 68.98 164.859 70.08 165.359 71.02C165.859 71.94 166.529 72.65 167.369 73.15C168.209 73.63 169.139 73.87 170.159 73.87C171.179 73.87 172.109 73.63 172.949 73.15C173.809 72.65 174.489 71.94 174.989 71.02C175.489 70.08 175.739 68.99 175.739 67.75ZM184.583 56.89C184.063 56.89 183.623 56.71 183.263 56.35C182.923 55.99 182.753 55.55 182.753 55.03C182.753 54.51 182.923 54.07 183.263 53.71C183.623 53.35 184.063 53.17 184.583 53.17C185.103 53.17 185.533 53.35 185.873 53.71C186.233 54.07 186.413 54.51 186.413 55.03C186.413 55.55 186.233 55.99 185.873 56.35C185.533 56.71 185.103 56.89 184.583 56.89ZM185.933 79.57C185.933 81.03 185.563 82.1 184.823 82.78C184.083 83.46 183.003 83.8 181.583 83.8H179.993V81.49H181.133C181.893 81.49 182.423 81.34 182.723 81.04C183.043 80.74 183.203 80.23 183.203 79.51V59.56H185.933V79.57ZM205.134 59.56V76H202.404V73.57C201.884 74.41 201.154 75.07 200.214 75.55C199.294 76.01 198.274 76.24 197.154 76.24C195.874 76.24 194.724 75.98 193.704 75.46C192.684 74.92 191.874 74.12 191.274 73.06C190.694 72 190.404 70.71 190.404 69.19V59.56H193.104V68.83C193.104 70.45 193.514 71.7 194.334 72.58C195.154 73.44 196.274 73.87 197.694 73.87C199.154 73.87 200.304 73.42 201.144 72.52C201.984 71.62 202.404 70.31 202.404 68.59V59.56H205.134ZM208.724 67.72C208.724 66.04 209.064 64.57 209.744 63.31C210.424 62.03 211.354 61.04 212.534 60.34C213.734 59.64 215.074 59.29 216.554 59.29C217.834 59.29 219.024 59.59 220.124 60.19C221.224 60.77 222.064 61.54 222.644 62.5V53.8H225.404V76H222.644V72.91C222.104 73.89 221.304 74.7 220.244 75.34C219.184 75.96 217.944 76.27 216.524 76.27C215.064 76.27 213.734 75.91 212.534 75.19C211.354 74.47 210.424 73.46 209.744 72.16C209.064 70.86 208.724 69.38 208.724 67.72ZM222.644 67.75C222.644 66.51 222.394 65.43 221.894 64.51C221.394 63.59 220.714 62.89 219.854 62.41C219.014 61.91 218.084 61.66 217.064 61.66C216.044 61.66 215.114 61.9 214.274 62.38C213.434 62.86 212.764 63.56 212.264 64.48C211.764 65.4 211.514 66.48 211.514 67.72C211.514 68.98 211.764 70.08 212.264 71.02C212.764 71.94 213.434 72.65 214.274 73.15C215.114 73.63 216.044 73.87 217.064 73.87C218.084 73.87 219.014 73.63 219.854 73.15C220.714 72.65 221.394 71.94 221.894 71.02C222.394 70.08 222.644 68.99 222.644 67.75ZM228.997 67.72C228.997 66.04 229.337 64.57 230.017 63.31C230.697 62.03 231.627 61.04 232.807 60.34C234.007 59.64 235.337 59.29 236.797 59.29C238.237 59.29 239.487 59.6 240.547 60.22C241.607 60.84 242.397 61.62 242.917 62.56V59.56H245.677V76H242.917V72.94C242.377 73.9 241.567 74.7 240.487 75.34C239.427 75.96 238.187 76.27 236.767 76.27C235.307 76.27 233.987 75.91 232.807 75.19C231.627 74.47 230.697 73.46 230.017 72.16C229.337 70.86 228.997 69.38 228.997 67.72ZM242.917 67.75C242.917 66.51 242.667 65.43 242.167 64.51C241.667 63.59 240.987 62.89 240.127 62.41C239.287 61.91 238.357 61.66 237.337 61.66C236.317 61.66 235.387 61.9 234.547 62.38C233.707 62.86 233.037 63.56 232.537 64.48C232.037 65.4 231.787 66.48 231.787 67.72C231.787 68.98 232.037 70.08 232.537 71.02C233.037 71.94 233.707 72.65 234.547 73.15C235.387 73.63 236.317 73.87 237.337 73.87C238.357 73.87 239.287 73.63 240.127 73.15C240.987 72.65 241.667 71.94 242.167 71.02C242.667 70.08 242.917 68.99 242.917 67.75Z" fill="white"/>
<defs>
<filter id="filter0_b_0_1" x="10.5938" y="-50" width="221.125" height="143.906" filterUnits="userSpaceOnUse" color-interpolation-filters="sRGB">
<feFlood flood-opacity="0" result="BackgroundImageFix"/>
<feGaussianBlur in="BackgroundImage" stdDeviation="25"/>
<feComposite in2="SourceAlpha" operator="in" result="effect1_backgroundBlur_0_1"/>
<feBlend mode="normal" in="SourceGraphic" in2="effect1_backgroundBlur_0_1" result="shape"/>
</filter>
</defs>
</svg>
